.
 
http://www.scenetime.com    -  Hottest private tracker on the net. !!!

New release on http://www.scenetime.com

        Seed back for speed


...................................NFO:.................................................[img]http://img828.imageshack.us/img828/3126/goodneighbors.jpg[/img]
[pre]
     _______.     ___      .___  ___.  __    __  .______          ___       __  
    /       |    /   \     |   \/   | |  |  |  | |   _  \        /   \     |  | 
   |   (----`   /  ^  \    |  \  /  | |  |  |  | |  |_)  |      /  ^  \    |  | 
    \   \      /  /_\  \   |  |\/|  | |  |  |  | |      /      /  /_\  \   |  | 
.----)   |    /  _____  \  |  |  |  | |  `--'  | |  |\  \----./  _____  \  |  | 
|_______/    /__/     \__\ |__|  |__|  \______/  | _| `._____/__/     \__\ |__| 
                                                                                

Good.Neighbors.2010.LiMiTED.BRRiP.AC-3.XViD-SAMURAi

ANOTHER QUALiTY SAMURAi RELEASE!!!

Encoder........: SAMURAi
Video Codec....: XViD
Audio Codec....: AC-3
Audio Bitrate..: 448 kb/s
Subtitles......: N/a
Resolution.....: 720 x 304
Runtime........: 99 min  
Language.......: English
IMDB Link......: http://www.imdb.com/title/tt1576440/
Genre..........: Comedy | Crime | Thriller
Ratings........: 5.9/10 from 481 users
Stars..........: Jay Baruchel, Scott Speedman and Xavier Dolan
Plot...........: Victor is new to Montreal and attempts to make friends with
the wheelchair-bound Spencer and the cat-loving Louise, but everybody is
on edge with a serial killer terrorizing the neighborhood. 



Video Source: Good.Neighbors.2010.LiMiTED.720p.BluRay.x264-OEM
Audio Source: Good.Neighbors.2010.LiMiTED.720p.BluRay.x264-OEM
 
Format                           : AVI
Format/Info                      : Audio Video Interleave
File size                        : 1.37 GiB
Duration                         : 1h 38mn
Overall bit rate                 : 1 985 Kbps
Writing application              : VirtualDubMod 1.5.10.2 (build 2540/release)
Writing library                  : VirtualDubMod build 2540/release

Video
ID                               : 0
Format                           : MPEG-4 Visual
Format profile                   : Advanced Simple@L5
Format settings, BVOP            : 2
Format settings, QPel            : No
Format settings, GMC             : No warppoints
Format settings, Matrix          : Default (H.263)
Muxing mode                      : Packed bitstream
Codec ID                         : XVID
Codec ID/Hint                    : XviD
Duration                         : 1h 38mn
Bit rate                         : 1 527 Kbps
Width                            : 720 pixels
Height                           : 304 pixels
Display aspect ratio             : 2.35:1
Frame rate                       : 23.976 fps
Color space                      : YUV
Chroma subsampling               : 4:2:0
Bit depth                        : 8 bits
Scan type                        : Progressive
Compression mode                 : Lossy
Bits/(Pixel*Frame)               : 0.291
Stream size                      : 1.05 GiB (77%)
Writing library                  : XviD 64

Audio
ID                               : 1
Format                           : AC-3
Format/Info                      : Audio Coding 3
Mode extension                   : CM (complete main)
Codec ID                         : 2000
Duration                         : 1h 38mn
Bit rate mode                    : Constant
Bit rate                         : 448 Kbps
Channel(s)                       : 6 channels
Channel positions                : Front: L C R, Side: L R, LFE
Sampling rate                    : 48.0 KHz
Bit depth                        : 16 bits
Compression mode                 : Lossy
Stream size                      : 317 MiB (23%)
Alignment                        : Split accross interleaves
Interleave, duration             : 42 ms (1.00 video frame)
Interleave, preload duration     : 500 ms





Release Notes:
few filters added, denoiser, sharpener, and messed with brightness/contrast a bit


Screenshots:
[img]http://img101.imageshack.us/img101/3192/vlcsnap2011092105h59m10.png[/img]
[img]http://img822.imageshack.us/img822/904/vlcsnap2011092105h59m56.png[/img]
[img]http://img594.imageshack.us/img594/1738/vlcsnap2011092106h00m40.png[/img]
[img]http://img35.imageshack.us/img35/5974/vlcsnap2011092106h01m30.png[/img]
[img]http://img221.imageshack.us/img221/3170/vlcsnap2011092106h03m19.png[/img]
[img]http://img192.imageshack.us/img192/6100/vlcsnap2011092106h03m54.png[/img]



Greetz:
ViSiON, SiC, SANTi, IMAGiNE, MEM, LKRG, DTRG, FLAWL3SS, WBZ, NPW,
CM8, UnKnown, ETRG, SaM, Blackjesus, NOiR, EP1C, EMBER...and other p2p
groups past and present good job!

[/pre]